version 1
nodes
0 "Plane02" -1
1 "23123213" -1
end
skeleton
time 0
0 0.000000000 0.000000000 0.422064990 0.000000000 0.000000000 1.570705007
1 0.000000000 0.000000000 0.000000000 0.000000000 0.000000000 1.570796354
time 1
0 0.000000000 0.000000000 0.422064990 0.000000000 0.000000000 1.612608251
1 0.000000000 0.000000000 0.000000000 0.000000000 0.000000000 1.570796354
time 2
0 0.000000000 0.000000000 0.422064990 0.000000000 0.000000000 1.654511495
1 0.000000000 0.000000000 0.000000000 0.000000000 0.000000000 1.570796354
time 3
0 0.000000000 0.000000000 0.422064990 0.000000000 0.000000000 1.696414739
1 0.000000000 0.000000000 0.000000000 0.000000000 0.000000000 1.570796354
time 4
0 0.000000000 0.000000000 0.422064990 0.000000000 0.000000000 1.738317983
1 0.000000000 0.000000000 0.000000000 0.000000000 0.000000000 1.570796354
time 5
0 0.000000000 0.000000000 0.422064990 0.000000000 0.000000000 1.780221227
1 0.000000000 0.000000000 0.000000000 0.000000000 0.000000000 1.570796354
time 6
0 0.000000000 0.000000000 0.422064990 0.000000000 0.000000000 1.822029236
1 0.000000000 0.000000000 0.000000000 0.000000000 0.000000000 1.570796354
time 7
0 0.000000000 0.000000000 0.422064990 0.000000000 0.000000000 1.863932480
1 0.000000000 0.000000000 0.000000000 0.000000000 0.000000000 1.570796354
time 8
0 0.000000000 0.000000000 0.422064990 0.000000000 0.000000000 1.905835724
1 0.000000000 0.000000000 0.000000000 0.000000000 0.000000000 1.570796354
time 9
0 0.000000000 0.000000000 0.422064990 0.000000000 0.000000000 1.947738968
1 0.000000000 0.000000000 0.000000000 0.000000000 0.000000000 1.570796354
time 10
0 0.000000000 0.000000000 0.422064990 0.000000000 0.000000000 1.989642212
1 0.000000000 0.000000000 0.000000000 0.000000000 0.000000000 1.570796354
time 11
0 0.000000000 0.000000000 0.422064990 0.000000000 0.000000000 2.031545456
1 0.000000000 0.000000000 0.000000000 0.000000000 0.000000000 1.570796354
time 12
0 0.000000000 0.000000000 0.422064990 0.000000000 0.000000000 2.073448700
1 0.000000000 0.000000000 0.000000000 0.000000000 0.000000000 1.570796354
time 13
0 0.000000000 0.000000000 0.422064990 0.000000000 0.000000000 2.115256709
1 0.000000000 0.000000000 0.000000000 0.000000000 0.000000000 1.570796354
time 14
0 0.000000000 0.000000000 0.422064990 0.000000000 0.000000000 2.157159953
1 0.000000000 0.000000000 0.000000000 0.000000000 0.000000000 1.570796354
time 15
0 0.000000000 0.000000000 0.422064990 0.000000000 0.000000000 2.199063197
1 0.000000000 0.000000000 0.000000000 0.000000000 0.000000000 1.570796354
time 16
0 0.000000000 0.000000000 0.422064990 0.000000000 0.000000000 2.240966441
1 0.000000000 0.000000000 0.000000000 0.000000000 0.000000000 1.570796354
time 17
0 0.000000000 0.000000000 0.422064990 0.000000000 0.000000000 2.282869685
1 0.000000000 0.000000000 0.000000000 0.000000000 0.000000000 1.570796354
time 18
0 0.000000000 0.000000000 0.422064990 0.000000000 0.000000000 2.324772929
1 0.000000000 0.000000000 0.000000000 0.000000000 0.000000000 1.570796354
time 19
0 0.000000000 0.000000000 0.422064990 0.000000000 0.000000000 2.366580939
1 0.000000000 0.000000000 0.000000000 0.000000000 0.000000000 1.570796354
time 20
0 0.000000000 0.000000000 0.422064990 0.000000000 0.000000000 2.408484183
1 0.000000000 0.000000000 0.000000000 0.000000000 0.000000000 1.570796354
time 21
0 0.000000000 0.000000000 0.422064990 0.000000000 0.000000000 2.450387427
1 0.000000000 0.000000000 0.000000000 0.000000000 0.000000000 1.570796354
time 22
0 0.000000000 0.000000000 0.422064990 0.000000000 0.000000000 2.492290670
1 0.000000000 0.000000000 0.000000000 0.000000000 0.000000000 1.570796354
time 23
0 0.000000000 0.000000000 0.422064990 0.000000000 0.000000000 2.534193914
1 0.000000000 0.000000000 0.000000000 0.000000000 0.000000000 1.570796354
time 24
0 0.000000000 0.000000000 0.422064990 0.000000000 0.000000000 2.576097158
1 0.000000000 0.000000000 0.000000000 0.000000000 0.000000000 1.570796354
time 25
0 0.000000000 0.000000000 0.422064990 0.000000000 0.000000000 2.617905168
1 0.000000000 0.000000000 0.000000000 0.000000000 0.000000000 1.570796354
time 26
0 0.000000000 0.000000000 0.422064990 0.000000000 0.000000000 2.659808412
1 0.000000000 0.000000000 0.000000000 0.000000000 0.000000000 1.570796354
time 27
0 0.000000000 0.000000000 0.422064990 0.000000000 0.000000000 2.701711656
1 0.000000000 0.000000000 0.000000000 0.000000000 0.000000000 1.570796354
time 28
0 0.000000000 0.000000000 0.422064990 0.000000000 0.000000000 2.743614900
1 0.000000000 0.000000000 0.000000000 0.000000000 0.000000000 1.570796354
time 29
0 0.000000000 0.000000000 0.422064990 0.000000000 0.000000000 2.785518144
1 0.000000000 0.000000000 0.000000000 0.000000000 0.000000000 1.570796354
time 30
0 0.000000000 0.000000000 0.422064990 0.000000000 0.000000000 2.827421388
1 0.000000000 0.000000000 0.000000000 0.000000000 0.000000000 1.570796354
time 31
0 0.000000000 0.000000000 0.422064990 0.000000000 0.000000000 2.869229397
1 0.000000000 0.000000000 0.000000000 0.000000000 0.000000000 1.570796354
time 32
0 0.000000000 0.000000000 0.422064990 0.000000000 0.000000000 2.911132641
1 0.000000000 0.000000000 0.000000000 0.000000000 0.000000000 1.570796354
time 33
0 0.000000000 0.000000000 0.422064990 0.000000000 0.000000000 2.953035885
1 0.000000000 0.000000000 0.000000000 0.000000000 0.000000000 1.570796354
time 34
0 0.000000000 0.000000000 0.422064990 0.000000000 0.000000000 2.994939129
1 0.000000000 0.000000000 0.000000000 0.000000000 0.000000000 1.570796354
time 35
0 0.000000000 0.000000000 0.422064990 0.000000000 0.000000000 3.036842373
1 0.000000000 0.000000000 0.000000000 0.000000000 0.000000000 1.570796354
time 36
0 0.000000000 0.000000000 0.422064990 0.000000000 0.000000000 3.078745617
1 0.000000000 0.000000000 0.000000000 0.000000000 0.000000000 1.570796354
time 37
0 0.000000000 0.000000000 0.422064990 0.000000000 0.000000000 3.120553626
1 0.000000000 0.000000000 0.000000000 0.000000000 0.000000000 1.570796354
time 38
0 0.000000000 0.000000000 0.422064990 0.000000000 0.000000000 -3.120648861
1 0.000000000 0.000000000 0.000000000 0.000000000 0.000000000 1.570796354
time 39
0 0.000000000 0.000000000 0.422064990 0.000000000 0.000000000 -3.078745617
1 0.000000000 0.000000000 0.000000000 0.000000000 0.000000000 1.570796354
time 40
0 0.000000000 0.000000000 0.422064990 0.000000000 0.000000000 -3.036842373
1 0.000000000 0.000000000 0.000000000 0.000000000 0.000000000 1.570796354
time 41
0 0.000000000 0.000000000 0.422064990 0.000000000 0.000000000 -2.994939129
1 0.000000000 0.000000000 0.000000000 0.000000000 0.000000000 1.570796354
time 42
0 0.000000000 0.000000000 0.422064990 0.000000000 0.000000000 -2.953035885
1 0.000000000 0.000000000 0.000000000 0.000000000 0.000000000 1.570796354
time 43
0 0.000000000 0.000000000 0.422064990 0.000000000 0.000000000 -2.911132641
1 0.000000000 0.000000000 0.000000000 0.000000000 0.000000000 1.570796354
time 44
0 0.000000000 0.000000000 0.422064990 0.000000000 0.000000000 -2.869229397
1 0.000000000 0.000000000 0.000000000 0.000000000 0.000000000 1.570796354
time 45
0 0.000000000 0.000000000 0.422064990 0.000000000 0.000000000 -2.827421388
1 0.000000000 0.000000000 0.000000000 0.000000000 0.000000000 1.570796354
time 46
0 0.000000000 0.000000000 0.422064990 0.000000000 0.000000000 -2.785518144
1 0.000000000 0.000000000 0.000000000 0.000000000 0.000000000 1.570796354
time 47
0 0.000000000 0.000000000 0.422064990 0.000000000 0.000000000 -2.743614900
1 0.000000000 0.000000000 0.000000000 0.000000000 0.000000000 1.570796354
time 48
0 0.000000000 0.000000000 0.422064990 0.000000000 0.000000000 -2.701711656
1 0.000000000 0.000000000 0.000000000 0.000000000 0.000000000 1.570796354
time 49
0 0.000000000 0.000000000 0.422064990 0.000000000 0.000000000 -2.659808412
1 0.000000000 0.000000000 0.000000000 0.000000000 0.000000000 1.570796354
time 50
0 0.000000000 0.000000000 0.422064990 0.000000000 0.000000000 -2.617905168
1 0.000000000 0.000000000 0.000000000 0.000000000 0.000000000 1.570796354
time 51
0 0.000000000 0.000000000 0.422064990 0.000000000 0.000000000 -2.576097158
1 0.000000000 0.000000000 0.000000000 0.000000000 0.000000000 1.570796354
time 52
0 0.000000000 0.000000000 0.422064990 0.000000000 0.000000000 -2.534193914
1 0.000000000 0.000000000 0.000000000 0.000000000 0.000000000 1.570796354
time 53
0 0.000000000 0.000000000 0.422064990 0.000000000 0.000000000 -2.492290670
1 0.000000000 0.000000000 0.000000000 0.000000000 0.000000000 1.570796354
time 54
0 0.000000000 0.000000000 0.422064990 0.000000000 0.000000000 -2.450387427
1 0.000000000 0.000000000 0.000000000 0.000000000 0.000000000 1.570796354
time 55
0 0.000000000 0.000000000 0.422064990 0.000000000 0.000000000 -2.408484183
1 0.000000000 0.000000000 0.000000000 0.000000000 0.000000000 1.570796354
time 56
0 0.000000000 0.000000000 0.422064990 0.000000000 0.000000000 -2.366580939
1 0.000000000 0.000000000 0.000000000 0.000000000 0.000000000 1.570796354
time 57
0 0.000000000 0.000000000 0.422064990 0.000000000 0.000000000 -2.324772929
1 0.000000000 0.000000000 0.000000000 0.000000000 0.000000000 1.570796354
time 58
0 0.000000000 0.000000000 0.422064990 0.000000000 0.000000000 -2.282869685
1 0.000000000 0.000000000 0.000000000 0.000000000 0.000000000 1.570796354
time 59
0 0.000000000 0.000000000 0.422064990 0.000000000 0.000000000 -2.240966441
1 0.000000000 0.000000000 0.000000000 0.000000000 0.000000000 1.570796354
time 60
0 0.000000000 0.000000000 0.422064990 0.000000000 0.000000000 -2.199063197
1 0.000000000 0.000000000 0.000000000 0.000000000 0.000000000 1.570796354
time 61
0 0.000000000 0.000000000 0.422064990 0.000000000 0.000000000 -2.157159953
1 0.000000000 0.000000000 0.000000000 0.000000000 0.000000000 1.570796354
time 62
0 0.000000000 0.000000000 0.422064990 0.000000000 0.000000000 -2.115256709
1 0.000000000 0.000000000 0.000000000 0.000000000 0.000000000 1.570796354
time 63
0 0.000000000 0.000000000 0.422064990 0.000000000 0.000000000 -2.073448700
1 0.000000000 0.000000000 0.000000000 0.000000000 0.000000000 1.570796354
time 64
0 0.000000000 0.000000000 0.422064990 0.000000000 0.000000000 -2.031545456
1 0.000000000 0.000000000 0.000000000 0.000000000 0.000000000 1.570796354
time 65
0 0.000000000 0.000000000 0.422064990 0.000000000 0.000000000 -1.989642212
1 0.000000000 0.000000000 0.000000000 0.000000000 0.000000000 1.570796354
time 66
0 0.000000000 0.000000000 0.422064990 0.000000000 0.000000000 -1.947738968
1 0.000000000 0.000000000 0.000000000 0.000000000 0.000000000 1.570796354
time 67
0 0.000000000 0.000000000 0.422064990 0.000000000 0.000000000 -1.905835724
1 0.000000000 0.000000000 0.000000000 0.000000000 0.000000000 1.570796354
time 68
0 0.000000000 0.000000000 0.422064990 0.000000000 0.000000000 -1.863932480
1 0.000000000 0.000000000 0.000000000 0.000000000 0.000000000 1.570796354
time 69
0 0.000000000 0.000000000 0.422064990 0.000000000 0.000000000 -1.822029236
1 0.000000000 0.000000000 0.000000000 0.000000000 0.000000000 1.570796354
time 70
0 0.000000000 0.000000000 0.422064990 0.000000000 0.000000000 -1.780221227
1 0.000000000 0.000000000 0.000000000 0.000000000 0.000000000 1.570796354
time 71
0 0.000000000 0.000000000 0.422064990 0.000000000 0.000000000 -1.738317983
1 0.000000000 0.000000000 0.000000000 0.000000000 0.000000000 1.570796354
time 72
0 0.000000000 0.000000000 0.422064990 0.000000000 0.000000000 -1.696414739
1 0.000000000 0.000000000 0.000000000 0.000000000 0.000000000 1.570796354
time 73
0 0.000000000 0.000000000 0.422064990 0.000000000 0.000000000 -1.654511495
1 0.000000000 0.000000000 0.000000000 0.000000000 0.000000000 1.570796354
time 74
0 0.000000000 0.000000000 0.422064990 0.000000000 0.000000000 -1.612608251
1 0.000000000 0.000000000 0.000000000 0.000000000 0.000000000 1.570796354
time 75
0 0.000000000 0.000000000 0.422064990 0.000000000 0.000000000 -1.570705007
1 0.000000000 0.000000000 0.000000000 0.000000000 0.000000000 1.570796354
time 76
0 0.000000000 0.000000000 0.422064990 0.000000000 0.000000000 -1.528896997
1 0.000000000 0.000000000 0.000000000 0.000000000 0.000000000 1.570796354
time 77
0 0.000000000 0.000000000 0.422064990 0.000000000 0.000000000 -1.486993753
1 0.000000000 0.000000000 0.000000000 0.000000000 0.000000000 1.570796354
time 78
0 0.000000000 0.000000000 0.422064990 0.000000000 0.000000000 -1.445090510
1 0.000000000 0.000000000 0.000000000 0.000000000 0.000000000 1.570796354
time 79
0 0.000000000 0.000000000 0.422064990 0.000000000 0.000000000 -1.403187266
1 0.000000000 0.000000000 0.000000000 0.000000000 0.000000000 1.570796354
time 80
0 0.000000000 0.000000000 0.422064990 0.000000000 0.000000000 -1.361284022
1 0.000000000 0.000000000 0.000000000 0.000000000 0.000000000 1.570796354
time 81
0 0.000000000 0.000000000 0.422064990 0.000000000 0.000000000 -1.319380778
1 0.000000000 0.000000000 0.000000000 0.000000000 0.000000000 1.570796354
time 82
0 0.000000000 0.000000000 0.422064990 0.000000000 0.000000000 -1.277572768
1 0.000000000 0.000000000 0.000000000 0.000000000 0.000000000 1.570796354
time 83
0 0.000000000 0.000000000 0.422064990 0.000000000 0.000000000 -1.235669524
1 0.000000000 0.000000000 0.000000000 0.000000000 0.000000000 1.570796354
time 84
0 0.000000000 0.000000000 0.422064990 0.000000000 0.000000000 -1.193766280
1 0.000000000 0.000000000 0.000000000 0.000000000 0.000000000 1.570796354
time 85
0 0.000000000 0.000000000 0.422064990 0.000000000 0.000000000 -1.151863036
1 0.000000000 0.000000000 0.000000000 0.000000000 0.000000000 1.570796354
time 86
0 0.000000000 0.000000000 0.422064990 0.000000000 0.000000000 -1.109959792
1 0.000000000 0.000000000 0.000000000 0.000000000 0.000000000 1.570796354
time 87
0 0.000000000 0.000000000 0.422064990 0.000000000 0.000000000 -1.068056548
1 0.000000000 0.000000000 0.000000000 0.000000000 0.000000000 1.570796354
time 88
0 0.000000000 0.000000000 0.422064990 0.000000000 0.000000000 -1.026248539
1 0.000000000 0.000000000 0.000000000 0.000000000 0.000000000 1.570796354
time 89
0 0.000000000 0.000000000 0.422064990 0.000000000 0.000000000 -0.984345295
1 0.000000000 0.000000000 0.000000000 0.000000000 0.000000000 1.570796354
time 90
0 0.000000000 0.000000000 0.422064990 0.000000000 0.000000000 -0.942442051
1 0.000000000 0.000000000 0.000000000 0.000000000 0.000000000 1.570796354
time 91
0 0.000000000 0.000000000 0.422064990 0.000000000 0.000000000 -0.900538807
1 0.000000000 0.000000000 0.000000000 0.000000000 0.000000000 1.570796354
time 92
0 0.000000000 0.000000000 0.422064990 0.000000000 0.000000000 -0.858635563
1 0.000000000 0.000000000 0.000000000 0.000000000 0.000000000 1.570796354
time 93
0 0.000000000 0.000000000 0.422064990 0.000000000 0.000000000 -0.816732319
1 0.000000000 0.000000000 0.000000000 0.000000000 0.000000000 1.570796354
time 94
0 0.000000000 0.000000000 0.422064990 0.000000000 0.000000000 -0.774924310
1 0.000000000 0.000000000 0.000000000 0.000000000 0.000000000 1.570796354
time 95
0 0.000000000 0.000000000 0.422064990 0.000000000 0.000000000 -0.733021066
1 0.000000000 0.000000000 0.000000000 0.000000000 0.000000000 1.570796354
time 96
0 0.000000000 0.000000000 0.422064990 0.000000000 0.000000000 -0.691117822
1 0.000000000 0.000000000 0.000000000 0.000000000 0.000000000 1.570796354
time 97
0 0.000000000 0.000000000 0.422064990 0.000000000 0.000000000 -0.649214578
1 0.000000000 0.000000000 0.000000000 0.000000000 0.000000000 1.570796354
time 98
0 0.000000000 0.000000000 0.422064990 0.000000000 0.000000000 -0.607311334
1 0.000000000 0.000000000 0.000000000 0.000000000 0.000000000 1.570796354
time 99
0 0.000000000 0.000000000 0.422064990 0.000000000 0.000000000 -0.565408090
1 0.000000000 0.000000000 0.000000000 0.000000000 0.000000000 1.570796354
time 100
0 0.000000000 0.000000000 0.422064990 0.000000000 0.000000000 -0.523504846
1 0.000000000 0.000000000 0.000000000 0.000000000 0.000000000 1.570796354
time 101
0 0.000000000 0.000000000 0.422064990 0.000000000 0.000000000 -0.481696837
1 0.000000000 0.000000000 0.000000000 0.000000000 0.000000000 1.570796354
time 102
0 0.000000000 0.000000000 0.422064990 0.000000000 0.000000000 -0.439793593
1 0.000000000 0.000000000 0.000000000 0.000000000 0.000000000 1.570796354
time 103
0 0.000000000 0.000000000 0.422064990 0.000000000 0.000000000 -0.397890349
1 0.000000000 0.000000000 0.000000000 0.000000000 0.000000000 1.570796354
time 104
0 0.000000000 0.000000000 0.422064990 0.000000000 0.000000000 -0.355987105
1 0.000000000 0.000000000 0.000000000 0.000000000 0.000000000 1.570796354
time 105
0 0.000000000 0.000000000 0.422064990 0.000000000 0.000000000 -0.314083861
1 0.000000000 0.000000000 0.000000000 0.000000000 0.000000000 1.570796354
time 106
0 0.000000000 0.000000000 0.422064990 0.000000000 0.000000000 -0.272180617
1 0.000000000 0.000000000 0.000000000 0.000000000 0.000000000 1.570796354
time 107
0 0.000000000 0.000000000 0.422064990 0.000000000 0.000000000 -0.230372607
1 0.000000000 0.000000000 0.000000000 0.000000000 0.000000000 1.570796354
time 108
0 0.000000000 0.000000000 0.422064990 0.000000000 0.000000000 -0.188469363
1 0.000000000 0.000000000 0.000000000 0.000000000 0.000000000 1.570796354
time 109
0 0.000000000 0.000000000 0.422064990 0.000000000 0.000000000 -0.146566119
1 0.000000000 0.000000000 0.000000000 0.000000000 0.000000000 1.570796354
time 110
0 0.000000000 0.000000000 0.422064990 0.000000000 0.000000000 -0.104662875
1 0.000000000 0.000000000 0.000000000 0.000000000 0.000000000 1.570796354
time 111
0 0.000000000 0.000000000 0.422064990 0.000000000 0.000000000 -0.062759631
1 0.000000000 0.000000000 0.000000000 0.000000000 0.000000000 1.570796354
time 112
0 0.000000000 0.000000000 0.422064990 0.000000000 0.000000000 -0.020856387
1 0.000000000 0.000000000 0.000000000 0.000000000 0.000000000 1.570796354
time 113
0 0.000000000 0.000000000 0.422064990 0.000000000 0.000000000 0.020856387
1 0.000000000 0.000000000 0.000000000 0.000000000 0.000000000 1.570796354
time 114
0 0.000000000 0.000000000 0.422064990 0.000000000 0.000000000 0.062759631
1 0.000000000 0.000000000 0.000000000 0.000000000 0.000000000 1.570796354
time 115
0 0.000000000 0.000000000 0.422064990 0.000000000 0.000000000 0.104662875
1 0.000000000 0.000000000 0.000000000 0.000000000 0.000000000 1.570796354
time 116
0 0.000000000 0.000000000 0.422064990 0.000000000 0.000000000 0.146566119
1 0.000000000 0.000000000 0.000000000 0.000000000 0.000000000 1.570796354
time 117
0 0.000000000 0.000000000 0.422064990 0.000000000 0.000000000 0.188469363
1 0.000000000 0.000000000 0.000000000 0.000000000 0.000000000 1.570796354
time 118
0 0.000000000 0.000000000 0.422064990 0.000000000 0.000000000 0.230372607
1 0.000000000 0.000000000 0.000000000 0.000000000 0.000000000 1.570796354
time 119
0 0.000000000 0.000000000 0.422064990 0.000000000 0.000000000 0.272180617
1 0.000000000 0.000000000 0.000000000 0.000000000 0.000000000 1.570796354
time 120
0 0.000000000 0.000000000 0.422064990 0.000000000 0.000000000 0.314083861
1 0.000000000 0.000000000 0.000000000 0.000000000 0.000000000 1.570796354
time 121
0 0.000000000 0.000000000 0.422064990 0.000000000 0.000000000 0.355987105
1 0.000000000 0.000000000 0.000000000 0.000000000 0.000000000 1.570796354
time 122
0 0.000000000 0.000000000 0.422064990 0.000000000 0.000000000 0.397890349
1 0.000000000 0.000000000 0.000000000 0.000000000 0.000000000 1.570796354
time 123
0 0.000000000 0.000000000 0.422064990 0.000000000 0.000000000 0.439793593
1 0.000000000 0.000000000 0.000000000 0.000000000 0.000000000 1.570796354
time 124
0 0.000000000 0.000000000 0.422064990 0.000000000 0.000000000 0.481696837
1 0.000000000 0.000000000 0.000000000 0.000000000 0.000000000 1.570796354
time 125
0 0.000000000 0.000000000 0.422064990 0.000000000 0.000000000 0.523504846
1 0.000000000 0.000000000 0.000000000 0.000000000 0.000000000 1.570796354
time 126
0 0.000000000 0.000000000 0.422064990 0.000000000 0.000000000 0.565408090
1 0.000000000 0.000000000 0.000000000 0.000000000 0.000000000 1.570796354
time 127
0 0.000000000 0.000000000 0.422064990 0.000000000 0.000000000 0.607311334
1 0.000000000 0.000000000 0.000000000 0.000000000 0.000000000 1.570796354
time 128
0 0.000000000 0.000000000 0.422064990 0.000000000 0.000000000 0.649214578
1 0.000000000 0.000000000 0.000000000 0.000000000 0.000000000 1.570796354
time 129
0 0.000000000 0.000000000 0.422064990 0.000000000 0.000000000 0.691117822
1 0.000000000 0.000000000 0.000000000 0.000000000 0.000000000 1.570796354
time 130
0 0.000000000 0.000000000 0.422064990 0.000000000 0.000000000 0.733021066
1 0.000000000 0.000000000 0.000000000 0.000000000 0.000000000 1.570796354
time 131
0 0.000000000 0.000000000 0.422064990 0.000000000 0.000000000 0.774924310
1 0.000000000 0.000000000 0.000000000 0.000000000 0.000000000 1.570796354
time 132
0 0.000000000 0.000000000 0.422064990 0.000000000 0.000000000 0.816732319
1 0.000000000 0.000000000 0.000000000 0.000000000 0.000000000 1.570796354
time 133
0 0.000000000 0.000000000 0.422064990 0.000000000 0.000000000 0.858635563
1 0.000000000 0.000000000 0.000000000 0.000000000 0.000000000 1.570796354
time 134
0 0.000000000 0.000000000 0.422064990 0.000000000 0.000000000 0.900538807
1 0.000000000 0.000000000 0.000000000 0.000000000 0.000000000 1.570796354
time 135
0 0.000000000 0.000000000 0.422064990 0.000000000 0.000000000 0.942442051
1 0.000000000 0.000000000 0.000000000 0.000000000 0.000000000 1.570796354
time 136
0 0.000000000 0.000000000 0.422064990 0.000000000 0.000000000 0.984345295
1 0.000000000 0.000000000 0.000000000 0.000000000 0.000000000 1.570796354
time 137
0 0.000000000 0.000000000 0.422064990 0.000000000 0.000000000 1.026248539
1 0.000000000 0.000000000 0.000000000 0.000000000 0.000000000 1.570796354
time 138
0 0.000000000 0.000000000 0.422064990 0.000000000 0.000000000 1.068056548
1 0.000000000 0.000000000 0.000000000 0.000000000 0.000000000 1.570796354
time 139
0 0.000000000 0.000000000 0.422064990 0.000000000 0.000000000 1.109959792
1 0.000000000 0.000000000 0.000000000 0.000000000 0.000000000 1.570796354
time 140
0 0.000000000 0.000000000 0.422064990 0.000000000 0.000000000 1.151863036
1 0.000000000 0.000000000 0.000000000 0.000000000 0.000000000 1.570796354
time 141
0 0.000000000 0.000000000 0.422064990 0.000000000 0.000000000 1.193766280
1 0.000000000 0.000000000 0.000000000 0.000000000 0.000000000 1.570796354
time 142
0 0.000000000 0.000000000 0.422064990 0.000000000 0.000000000 1.235669524
1 0.000000000 0.000000000 0.000000000 0.000000000 0.000000000 1.570796354
time 143
0 0.000000000 0.000000000 0.422064990 0.000000000 0.000000000 1.277572768
1 0.000000000 0.000000000 0.000000000 0.000000000 0.000000000 1.570796354
time 144
0 0.000000000 0.000000000 0.422064990 0.000000000 0.000000000 1.319380778
1 0.000000000 0.000000000 0.000000000 0.000000000 0.000000000 1.570796354
time 145
0 0.000000000 0.000000000 0.422064990 0.000000000 0.000000000 1.361284022
1 0.000000000 0.000000000 0.000000000 0.000000000 0.000000000 1.570796354
time 146
0 0.000000000 0.000000000 0.422064990 0.000000000 0.000000000 1.403187266
1 0.000000000 0.000000000 0.000000000 0.000000000 0.000000000 1.570796354
time 147
0 0.000000000 0.000000000 0.422064990 0.000000000 0.000000000 1.445090510
1 0.000000000 0.000000000 0.000000000 0.000000000 0.000000000 1.570796354
time 148
0 0.000000000 0.000000000 0.422064990 0.000000000 0.000000000 1.486993753
1 0.000000000 0.000000000 0.000000000 0.000000000 0.000000000 1.570796354
time 149
0 0.000000000 0.000000000 0.422064990 0.000000000 0.000000000 1.528896997
1 0.000000000 0.000000000 0.000000000 0.000000000 0.000000000 1.570796354
time 150
0 0.000000000 0.000000000 0.422064990 0.000000000 0.000000000 1.570705007
1 0.000000000 0.000000000 0.000000000 0.000000000 0.000000000 1.570796354
end
