version 1
nodes
0 "Plane02" -1
1 "23123213" -1
end
skeleton
time 0
0 0.000000000 -0.000000000 0.422064990 0.000000000 -0.000000000 0.000000000
1 0.000000000 0.000000000 0.000000000 0.000000000 -0.000000000 0.000000000
end
triangles
portal02.bmp
0 -17.430000305 17.430000305 0.422064990 0.000000000 0.000000000 1.000000000 0.000000000 1.000000000
0 17.430000305 17.430000305 0.422064990 0.000000000 0.000000000 1.000000000 0.998046875 1.000000000
0 -17.430000305 -17.430000305 0.422064990 0.000000000 0.000000000 1.000000000 0.000000000 0.001953125
portal02.bmp
0 -17.430000305 -17.430000305 0.422064990 0.000000000 0.000000000 1.000000000 0.000000000 0.001953125
0 17.430000305 17.430000305 0.422064990 0.000000000 0.000000000 1.000000000 0.998046875 1.000000000
0 17.430000305 -17.430000305 0.422064990 0.000000000 0.000000000 1.000000000 0.998046875 0.001953125
portal03.bmp
1 0.170000002 0.409999996 120.620002747 0.382682920 0.923879743 0.000000000 0.933593750 0.984375000
1 0.310000002 0.310000002 0.000000000 0.707106292 0.707107306 0.000000000 0.871093750 0.246093750
1 0.310000002 0.310000002 120.620002747 0.707106292 0.707107306 0.000000000 0.871093750 0.984375000
portal03.bmp
1 0.310000002 0.310000002 120.620002747 0.707106292 0.707107306 0.000000000 0.871093750 0.984375000
1 0.310000002 0.310000002 0.000000000 0.707106292 0.707107306 0.000000000 0.871093750 0.246093750
1 0.409999996 0.170000002 0.000000000 0.923879266 0.382684082 0.000000000 0.808593750 0.246093750
portal03.bmp
1 0.310000002 0.310000002 120.620002747 0.707106292 0.707107306 0.000000000 0.871093750 0.984375000
1 0.409999996 0.170000002 0.000000000 0.923879266 0.382684082 0.000000000 0.808593750 0.246093750
1 0.409999996 0.170000002 120.620002747 0.923879266 0.382684082 0.000000000 0.808593750 0.984375000
portal03.bmp
1 0.409999996 0.170000002 120.620002747 0.923879266 0.382684082 0.000000000 0.808593750 0.984375000
1 0.409999996 0.170000002 0.000000000 0.923879266 0.382684082 0.000000000 0.808593750 0.246093750
1 0.439999998 0.000000000 0.000000000 1.000000000 -0.000001000 0.000000000 0.746093750 0.246093750
portal03.bmp
1 0.409999996 0.170000002 120.620002747 0.923879266 0.382684082 0.000000000 0.808593750 0.984375000
1 0.439999998 0.000000000 0.000000000 1.000000000 -0.000001000 0.000000000 0.746093750 0.246093750
1 0.439999998 0.000000000 120.620002747 1.000000000 -0.000001000 0.000000000 0.746093750 0.984375000
portal03.bmp
1 0.439999998 0.000000000 120.620002747 1.000000000 -0.000001000 0.000000000 0.746093750 0.984375000
1 0.439999998 0.000000000 0.000000000 1.000000000 -0.000001000 0.000000000 0.746093750 0.246093750
1 0.409999996 -0.170000002 0.000000000 0.923880100 -0.382682055 0.000000000 0.683593750 0.246093750
portal03.bmp
1 0.439999998 0.000000000 120.620002747 1.000000000 -0.000001000 0.000000000 0.746093750 0.984375000
1 0.409999996 -0.170000002 0.000000000 0.923880100 -0.382682055 0.000000000 0.683593750 0.246093750
1 0.409999996 -0.170000002 120.620002747 0.923880100 -0.382682055 0.000000000 0.683593750 0.984375000
portal03.bmp
1 0.409999996 -0.170000002 120.620002747 0.923880100 -0.382682055 0.000000000 0.683593750 0.984375000
1 0.409999996 -0.170000002 0.000000000 0.923880100 -0.382682055 0.000000000 0.683593750 0.246093750
1 0.310000002 -0.310000002 0.000000000 0.707107782 -0.707105756 0.000000000 0.621093750 0.246093750
portal03.bmp
1 0.409999996 -0.170000002 120.620002747 0.923880100 -0.382682055 0.000000000 0.683593750 0.984375000
1 0.310000002 -0.310000002 0.000000000 0.707107782 -0.707105756 0.000000000 0.621093750 0.246093750
1 0.310000002 -0.310000002 120.620002747 0.707107782 -0.707105756 0.000000000 0.621093750 0.984375000
portal03.bmp
1 0.310000002 -0.310000002 120.620002747 0.707107782 -0.707105756 0.000000000 0.621093750 0.984375000
1 0.310000002 -0.310000002 0.000000000 0.707107782 -0.707105756 0.000000000 0.621093750 0.246093750
1 0.170000002 -0.409999996 0.000000000 0.382684082 -0.923879266 0.000000000 0.558593750 0.246093750
portal03.bmp
1 0.310000002 -0.310000002 120.620002747 0.707107782 -0.707105756 0.000000000 0.621093750 0.984375000
1 0.170000002 -0.409999996 0.000000000 0.382684082 -0.923879266 0.000000000 0.558593750 0.246093750
1 0.170000002 -0.409999996 120.620002747 0.382684082 -0.923879266 0.000000000 0.558593750 0.984375000
portal03.bmp
1 0.170000002 -0.409999996 120.620002747 0.382684082 -0.923879266 0.000000000 0.558593750 0.984375000
1 0.170000002 -0.409999996 0.000000000 0.382684082 -0.923879266 0.000000000 0.558593750 0.246093750
1 0.000000000 -0.439999998 0.000000000 0.000001000 -1.000000000 0.000000000 0.496093750 0.246093750
portal03.bmp
1 0.170000002 -0.409999996 120.620002747 0.382684082 -0.923879266 0.000000000 0.558593750 0.984375000
1 0.000000000 -0.439999998 0.000000000 0.000001000 -1.000000000 0.000000000 0.496093750 0.246093750
1 0.000000000 -0.439999998 120.620002747 0.000001000 -1.000000000 0.000000000 0.496093750 0.984375000
portal03.bmp
1 0.000000000 -0.439999998 120.620002747 0.000001000 -1.000000000 0.000000000 0.496093750 0.984375000
1 0.000000000 -0.439999998 0.000000000 0.000001000 -1.000000000 0.000000000 0.496093750 0.246093750
1 -0.170000002 -0.409999996 0.000000000 -0.382682920 -0.923879743 0.000000000 0.433593750 0.246093750
portal03.bmp
1 0.000000000 -0.439999998 120.620002747 0.000001000 -1.000000000 0.000000000 0.496093750 0.984375000
1 -0.170000002 -0.409999996 0.000000000 -0.382682920 -0.923879743 0.000000000 0.433593750 0.246093750
1 -0.170000002 -0.409999996 120.620002747 -0.382682920 -0.923879743 0.000000000 0.433593750 0.984375000
portal03.bmp
1 -0.170000002 -0.409999996 120.620002747 -0.382682920 -0.923879743 0.000000000 0.433593750 0.984375000
1 -0.170000002 -0.409999996 0.000000000 -0.382682920 -0.923879743 0.000000000 0.433593750 0.246093750
1 -0.310000002 -0.310000002 0.000000000 -0.707106292 -0.707107306 0.000000000 0.371093750 0.246093750
portal03.bmp
1 -0.170000002 -0.409999996 120.620002747 -0.382682920 -0.923879743 0.000000000 0.433593750 0.984375000
1 -0.310000002 -0.310000002 0.000000000 -0.707106292 -0.707107306 0.000000000 0.371093750 0.246093750
1 -0.310000002 -0.310000002 120.620002747 -0.707106292 -0.707107306 0.000000000 0.371093750 0.984375000
portal03.bmp
1 -0.310000002 -0.310000002 120.620002747 -0.707106292 -0.707107306 0.000000000 0.371093750 0.984375000
1 -0.310000002 -0.310000002 0.000000000 -0.707106292 -0.707107306 0.000000000 0.371093750 0.246093750
1 -0.409999996 -0.170000002 0.000000000 -0.923879266 -0.382684082 0.000000000 0.308593750 0.246093750
portal03.bmp
1 -0.310000002 -0.310000002 120.620002747 -0.707106292 -0.707107306 0.000000000 0.371093750 0.984375000
1 -0.409999996 -0.170000002 0.000000000 -0.923879266 -0.382684082 0.000000000 0.308593750 0.246093750
1 -0.409999996 -0.170000002 120.620002747 -0.923879266 -0.382684082 0.000000000 0.308593750 0.984375000
portal03.bmp
1 -0.409999996 -0.170000002 120.620002747 -0.923879266 -0.382684082 0.000000000 0.308593750 0.984375000
1 -0.409999996 -0.170000002 0.000000000 -0.923879266 -0.382684082 0.000000000 0.308593750 0.246093750
1 -0.439999998 0.000000000 0.000000000 -1.000000000 -0.000001000 0.000000000 0.246093750 0.246093750
portal03.bmp
1 -0.409999996 -0.170000002 120.620002747 -0.923879266 -0.382684082 0.000000000 0.308593750 0.984375000
1 -0.439999998 0.000000000 0.000000000 -1.000000000 -0.000001000 0.000000000 0.246093750 0.246093750
1 -0.439999998 0.000000000 120.620002747 -1.000000000 -0.000001000 0.000000000 0.246093750 0.984375000
portal03.bmp
1 -0.439999998 0.000000000 120.620002747 -1.000000000 -0.000001000 0.000000000 0.246093750 0.984375000
1 -0.439999998 0.000000000 0.000000000 -1.000000000 -0.000001000 0.000000000 0.246093750 0.246093750
1 -0.409999996 0.170000002 0.000000000 -0.923879743 0.382682920 0.000000000 0.183593750 0.246093750
portal03.bmp
1 -0.439999998 0.000000000 120.620002747 -1.000000000 -0.000001000 0.000000000 0.246093750 0.984375000
1 -0.409999996 0.170000002 0.000000000 -0.923879743 0.382682920 0.000000000 0.183593750 0.246093750
1 -0.409999996 0.170000002 120.620002747 -0.923879743 0.382682920 0.000000000 0.183593750 0.984375000
portal03.bmp
1 -0.409999996 0.170000002 120.620002747 -0.923879743 0.382682920 0.000000000 0.183593750 0.984375000
1 -0.409999996 0.170000002 0.000000000 -0.923879743 0.382682920 0.000000000 0.183593750 0.246093750
1 -0.310000002 0.310000002 0.000000000 -0.707107306 0.707106292 0.000000000 0.121093750 0.246093750
portal03.bmp
1 -0.409999996 0.170000002 120.620002747 -0.923879743 0.382682920 0.000000000 0.183593750 0.984375000
1 -0.310000002 0.310000002 0.000000000 -0.707107306 0.707106292 0.000000000 0.121093750 0.246093750
1 -0.310000002 0.310000002 120.620002747 -0.707107306 0.707106292 0.000000000 0.121093750 0.984375000
portal03.bmp
1 -0.310000002 0.310000002 120.620002747 -0.707107306 0.707106292 0.000000000 0.121093750 0.984375000
1 -0.310000002 0.310000002 0.000000000 -0.707107306 0.707106292 0.000000000 0.121093750 0.246093750
1 -0.170000002 0.409999996 0.000000000 -0.382684082 0.923879266 0.000000000 0.058593750 0.246093750
portal03.bmp
1 -0.310000002 0.310000002 120.620002747 -0.707107306 0.707106292 0.000000000 0.121093750 0.984375000
1 -0.170000002 0.409999996 0.000000000 -0.382684082 0.923879266 0.000000000 0.058593750 0.246093750
1 -0.170000002 0.409999996 120.620002747 -0.382684082 0.923879266 0.000000000 0.058593750 0.984375000
portal03.bmp
1 -0.170000002 0.409999996 120.620002747 -0.382684082 0.923879266 0.000000000 0.058593750 0.984375000
1 -0.170000002 0.409999996 0.000000000 -0.382684082 0.923879266 0.000000000 0.058593750 0.246093750
1 0.000000000 0.439999998 0.000000000 -0.000001000 1.000000000 0.000000000 0.000000000 0.246093750
portal03.bmp
1 -0.170000002 0.409999996 120.620002747 -0.382684082 0.923879266 0.000000000 0.058593750 0.984375000
1 0.000000000 0.439999998 0.000000000 -0.000001000 1.000000000 0.000000000 0.000000000 0.246093750
1 0.000000000 0.439999998 120.620002747 -0.000001000 1.000000000 0.000000000 0.000000000 0.984375000
portal03.bmp
1 0.000000000 0.439999998 120.620002747 -0.000001000 1.000000000 0.000000000 0.000000000 0.984375000
1 0.000000000 0.439999998 0.000000000 -0.000001000 1.000000000 0.000000000 0.000000000 0.246093750
1 0.170000002 0.409999996 0.000000000 0.382682920 0.923879743 0.000000000 0.000000000 0.246093750
portal03.bmp
1 0.000000000 0.439999998 120.620002747 -0.000001000 1.000000000 0.000000000 0.000000000 0.984375000
1 0.170000002 0.409999996 0.000000000 0.382682920 0.923879743 0.000000000 0.000000000 0.246093750
1 0.170000002 0.409999996 120.620002747 0.382682920 0.923879743 0.000000000 0.000000000 0.984375000
portal03.bmp
1 0.000000000 0.000000000 0.000000000 0.000000000 0.000000000 -1.000000000 0.496093750 0.246093750
1 0.170000002 0.409999996 0.000000000 0.000000000 0.000000000 -1.000000000 0.000000000 0.246093750
1 0.000000000 0.439999998 0.000000000 0.000000000 0.000000000 -1.000000000 0.000000000 0.246093750
portal03.bmp
1 0.000000000 0.000000000 0.000000000 0.000000000 0.000000000 -1.000000000 0.496093750 0.246093750
1 0.000000000 0.439999998 0.000000000 0.000000000 0.000000000 -1.000000000 0.000000000 0.246093750
1 -0.170000002 0.409999996 0.000000000 0.000000000 0.000000000 -1.000000000 0.058593750 0.246093750
portal03.bmp
1 0.000000000 0.000000000 0.000000000 0.000000000 0.000000000 -1.000000000 0.496093750 0.246093750
1 -0.170000002 0.409999996 0.000000000 0.000000000 0.000000000 -1.000000000 0.058593750 0.246093750
1 -0.310000002 0.310000002 0.000000000 0.000000000 0.000000000 -1.000000000 0.121093750 0.246093750
portal03.bmp
1 0.000000000 0.000000000 0.000000000 0.000000000 0.000000000 -1.000000000 0.496093750 0.246093750
1 -0.310000002 0.310000002 0.000000000 0.000000000 0.000000000 -1.000000000 0.121093750 0.246093750
1 -0.409999996 0.170000002 0.000000000 0.000000000 0.000000000 -1.000000000 0.183593750 0.246093750
portal03.bmp
1 0.000000000 0.000000000 0.000000000 0.000000000 0.000000000 -1.000000000 0.496093750 0.246093750
1 -0.409999996 0.170000002 0.000000000 0.000000000 0.000000000 -1.000000000 0.183593750 0.246093750
1 -0.439999998 0.000000000 0.000000000 0.000000000 0.000000000 -1.000000000 0.246093750 0.246093750
portal03.bmp
1 0.000000000 0.000000000 0.000000000 0.000000000 0.000000000 -1.000000000 0.496093750 0.246093750
1 -0.439999998 0.000000000 0.000000000 0.000000000 0.000000000 -1.000000000 0.246093750 0.246093750
1 -0.409999996 -0.170000002 0.000000000 0.000000000 0.000000000 -1.000000000 0.308593750 0.246093750
portal03.bmp
1 0.000000000 0.000000000 0.000000000 0.000000000 0.000000000 -1.000000000 0.496093750 0.246093750
1 -0.409999996 -0.170000002 0.000000000 0.000000000 0.000000000 -1.000000000 0.308593750 0.246093750
1 -0.310000002 -0.310000002 0.000000000 0.000000000 0.000000000 -1.000000000 0.371093750 0.246093750
portal03.bmp
1 0.000000000 0.000000000 0.000000000 0.000000000 0.000000000 -1.000000000 0.496093750 0.246093750
1 -0.310000002 -0.310000002 0.000000000 0.000000000 0.000000000 -1.000000000 0.371093750 0.246093750
1 -0.170000002 -0.409999996 0.000000000 0.000000000 0.000000000 -1.000000000 0.433593750 0.246093750
portal03.bmp
1 0.000000000 0.000000000 0.000000000 0.000000000 0.000000000 -1.000000000 0.496093750 0.246093750
1 -0.170000002 -0.409999996 0.000000000 0.000000000 0.000000000 -1.000000000 0.433593750 0.246093750
1 0.000000000 -0.439999998 0.000000000 0.000000000 0.000000000 -1.000000000 0.496093750 0.246093750
portal03.bmp
1 0.000000000 0.000000000 0.000000000 0.000000000 0.000000000 -1.000000000 0.496093750 0.246093750
1 0.000000000 -0.439999998 0.000000000 0.000000000 0.000000000 -1.000000000 0.496093750 0.246093750
1 0.170000002 -0.409999996 0.000000000 0.000000000 0.000000000 -1.000000000 0.558593750 0.246093750
portal03.bmp
1 0.000000000 0.000000000 0.000000000 0.000000000 0.000000000 -1.000000000 0.496093750 0.246093750
1 0.170000002 -0.409999996 0.000000000 0.000000000 0.000000000 -1.000000000 0.558593750 0.246093750
1 0.310000002 -0.310000002 0.000000000 0.000000000 0.000000000 -1.000000000 0.621093750 0.246093750
portal03.bmp
1 0.000000000 0.000000000 0.000000000 0.000000000 0.000000000 -1.000000000 0.496093750 0.246093750
1 0.310000002 -0.310000002 0.000000000 0.000000000 0.000000000 -1.000000000 0.621093750 0.246093750
1 0.409999996 -0.170000002 0.000000000 0.000000000 0.000000000 -1.000000000 0.683593750 0.246093750
portal03.bmp
1 0.000000000 0.000000000 0.000000000 0.000000000 0.000000000 -1.000000000 0.496093750 0.246093750
1 0.409999996 -0.170000002 0.000000000 0.000000000 0.000000000 -1.000000000 0.683593750 0.246093750
1 0.439999998 0.000000000 0.000000000 0.000000000 0.000000000 -1.000000000 0.746093750 0.246093750
portal03.bmp
1 0.000000000 0.000000000 0.000000000 0.000000000 0.000000000 -1.000000000 0.496093750 0.246093750
1 0.439999998 0.000000000 0.000000000 0.000000000 0.000000000 -1.000000000 0.746093750 0.246093750
1 0.409999996 0.170000002 0.000000000 0.000000000 0.000000000 -1.000000000 0.808593750 0.246093750
portal03.bmp
1 0.000000000 0.000000000 0.000000000 0.000000000 0.000000000 -1.000000000 0.496093750 0.246093750
1 0.409999996 0.170000002 0.000000000 0.000000000 0.000000000 -1.000000000 0.808593750 0.246093750
1 0.310000002 0.310000002 0.000000000 0.000000000 0.000000000 -1.000000000 0.871093750 0.246093750
portal03.bmp
1 0.000000000 0.000000000 0.000000000 0.000000000 0.000000000 -1.000000000 0.496093750 0.246093750
1 0.310000002 0.310000002 0.000000000 0.000000000 0.000000000 -1.000000000 0.871093750 0.246093750
1 0.170000002 0.409999996 0.000000000 0.000000000 0.000000000 -1.000000000 0.933593750 0.246093750
portal03.bmp
1 0.000000000 0.000000000 120.620002747 0.000000000 0.000000000 1.000000000 0.496093750 0.984375000
1 0.170000002 0.409999996 120.620002747 0.000000000 0.000000000 1.000000000 0.933593750 0.984375000
1 0.310000002 0.310000002 120.620002747 0.000000000 0.000000000 1.000000000 0.871093750 0.984375000
portal03.bmp
1 0.000000000 0.000000000 120.620002747 0.000000000 0.000000000 1.000000000 0.496093750 0.984375000
1 0.310000002 0.310000002 120.620002747 0.000000000 0.000000000 1.000000000 0.871093750 0.984375000
1 0.409999996 0.170000002 120.620002747 0.000000000 0.000000000 1.000000000 0.808593750 0.984375000
portal03.bmp
1 0.000000000 0.000000000 120.620002747 0.000000000 0.000000000 1.000000000 0.496093750 0.984375000
1 0.409999996 0.170000002 120.620002747 0.000000000 0.000000000 1.000000000 0.808593750 0.984375000
1 0.439999998 0.000000000 120.620002747 0.000000000 0.000000000 1.000000000 0.746093750 0.984375000
portal03.bmp
1 0.000000000 0.000000000 120.620002747 0.000000000 0.000000000 1.000000000 0.496093750 0.984375000
1 0.439999998 0.000000000 120.620002747 0.000000000 0.000000000 1.000000000 0.746093750 0.984375000
1 0.409999996 -0.170000002 120.620002747 0.000000000 0.000000000 1.000000000 0.683593750 0.984375000
portal03.bmp
1 0.000000000 0.000000000 120.620002747 0.000000000 0.000000000 1.000000000 0.496093750 0.984375000
1 0.409999996 -0.170000002 120.620002747 0.000000000 0.000000000 1.000000000 0.683593750 0.984375000
1 0.310000002 -0.310000002 120.620002747 0.000000000 0.000000000 1.000000000 0.621093750 0.984375000
portal03.bmp
1 0.000000000 0.000000000 120.620002747 0.000000000 0.000000000 1.000000000 0.496093750 0.984375000
1 0.310000002 -0.310000002 120.620002747 0.000000000 0.000000000 1.000000000 0.621093750 0.984375000
1 0.170000002 -0.409999996 120.620002747 0.000000000 0.000000000 1.000000000 0.558593750 0.984375000
portal03.bmp
1 0.000000000 0.000000000 120.620002747 0.000000000 0.000000000 1.000000000 0.496093750 0.984375000
1 0.170000002 -0.409999996 120.620002747 0.000000000 0.000000000 1.000000000 0.558593750 0.984375000
1 0.000000000 -0.439999998 120.620002747 0.000000000 0.000000000 1.000000000 0.496093750 0.984375000
portal03.bmp
1 0.000000000 0.000000000 120.620002747 0.000000000 0.000000000 1.000000000 0.496093750 0.984375000
1 0.000000000 -0.439999998 120.620002747 0.000000000 0.000000000 1.000000000 0.496093750 0.984375000
1 -0.170000002 -0.409999996 120.620002747 0.000000000 0.000000000 1.000000000 0.433593750 0.984375000
portal03.bmp
1 0.000000000 0.000000000 120.620002747 0.000000000 0.000000000 1.000000000 0.496093750 0.984375000
1 -0.170000002 -0.409999996 120.620002747 0.000000000 0.000000000 1.000000000 0.433593750 0.984375000
1 -0.310000002 -0.310000002 120.620002747 0.000000000 0.000000000 1.000000000 0.371093750 0.984375000
portal03.bmp
1 0.000000000 0.000000000 120.620002747 0.000000000 0.000000000 1.000000000 0.496093750 0.984375000
1 -0.310000002 -0.310000002 120.620002747 0.000000000 0.000000000 1.000000000 0.371093750 0.984375000
1 -0.409999996 -0.170000002 120.620002747 0.000000000 0.000000000 1.000000000 0.308593750 0.984375000
portal03.bmp
1 0.000000000 0.000000000 120.620002747 0.000000000 0.000000000 1.000000000 0.496093750 0.984375000
1 -0.409999996 -0.170000002 120.620002747 0.000000000 0.000000000 1.000000000 0.308593750 0.984375000
1 -0.439999998 0.000000000 120.620002747 0.000000000 0.000000000 1.000000000 0.246093750 0.984375000
portal03.bmp
1 0.000000000 0.000000000 120.620002747 0.000000000 0.000000000 1.000000000 0.496093750 0.984375000
1 -0.439999998 0.000000000 120.620002747 0.000000000 0.000000000 1.000000000 0.246093750 0.984375000
1 -0.409999996 0.170000002 120.620002747 0.000000000 0.000000000 1.000000000 0.183593750 0.984375000
portal03.bmp
1 0.000000000 0.000000000 120.620002747 0.000000000 0.000000000 1.000000000 0.496093750 0.984375000
1 -0.409999996 0.170000002 120.620002747 0.000000000 0.000000000 1.000000000 0.183593750 0.984375000
1 -0.310000002 0.310000002 120.620002747 0.000000000 0.000000000 1.000000000 0.121093750 0.984375000
portal03.bmp
1 0.000000000 0.000000000 120.620002747 0.000000000 0.000000000 1.000000000 0.496093750 0.984375000
1 -0.310000002 0.310000002 120.620002747 0.000000000 0.000000000 1.000000000 0.121093750 0.984375000
1 -0.170000002 0.409999996 120.620002747 0.000000000 0.000000000 1.000000000 0.058593750 0.984375000
portal03.bmp
1 0.000000000 0.000000000 120.620002747 0.000000000 0.000000000 1.000000000 0.496093750 0.984375000
1 -0.170000002 0.409999996 120.620002747 0.000000000 0.000000000 1.000000000 0.058593750 0.984375000
1 0.000000000 0.439999998 120.620002747 0.000000000 0.000000000 1.000000000 0.000000000 0.984375000
portal03.bmp
1 0.000000000 0.000000000 120.620002747 0.000000000 0.000000000 1.000000000 0.496093750 0.984375000
1 0.000000000 0.439999998 120.620002747 0.000000000 0.000000000 1.000000000 0.000000000 0.984375000
1 0.170000002 0.409999996 120.620002747 0.000000000 0.000000000 1.000000000 0.000000000 0.984375000
portal03.bmp
1 0.170000002 0.409999996 120.620002747 0.382682920 0.923879743 0.000000000 0.933593750 0.984375000
1 0.170000002 0.409999996 0.000000000 0.382682920 0.923879743 0.000000000 0.933593750 0.246093750
1 0.310000002 0.310000002 0.000000000 0.707106292 0.707107306 0.000000000 0.871093750 0.246093750
end
